# xmcd
#
# Track frame offsets: 
#        150
#        16611
#        26451
#        40390
#        52303
#        64062
#        77692
#        98236
#        119704
#        133638
#        148780
#        162187
#        174107
#        186708
#
# Disc length: 2669 seconds
#
# Revision: 1
# Processed by: cddbd v1.5.2PL0 Copyright (c) Steve Scherf et al.
# Submitted via: ExactAudioCopy v0.95b4
#
DISCID=c30a6b0e
DTITLE=George Jones and Merle Haggard - Kickin' Out The Footlights...Aga
DTITLE=in
DYEAR=2006
DGENRE=Country
TTITLE0=Footlights
TTITLE1=The Race Is On
TTITLE2=The Way I Am
TTITLE3=She Thinks I Still Care
TTITLE4=All My Friends Are Strangers
TTITLE5=Things Have Gone To Pieces
TTITLE6=I Think I'll Just Stay Here And Drink
TTITLE7=Born With The Blues
TTITLE8=Sick, Sober and Sorry
TTITLE9=I Always Get Lucky With You
TTITLE10=Sing Me Back Home
TTITLE11=The Window Up Above
TTITLE12=You Take Me For Granted
TTITLE13=Don't Get Around Much Anymore
EXTD=
EXTT0=
EXTT1=
EXTT2=
EXTT3=
EXTT4=
EXTT5=
EXTT6=
EXTT7=
EXTT8=
EXTT9=
EXTT10=
EXTT11=
EXTT12=
EXTT13=
PLAYORDER=
